<svg width="479" height="107" viewBox="0 0 479 107" fill="none" xmlns="http://www.w3.org/2000/svg">
<g clip-path="url(#clip0)">
<g filter="url(#filter0_i)">
<path d="M-397.333 30.0364C-403.972 48.0243 -429.2 84 -477 84V-237H479V84C429.208 84 405.004 48.0243 399.333 30.0364C392.694 48.0243 367.799 84 319.667 84C271.535 84 246.501 48.0243 240 30.0364C233.361 48.0243 208.133 84 160.333 84C112.533 84 87.3055 48.0243 80.6667 30.0364C74.1661 47.8388 48.8 83.4437 1 83.4437C-46.8 83.4437 -71.8895 47.8388 -78.6667 30.0364C-85.1672 47.8388 -110.201 83.4437 -158.333 83.4437C-206.465 83.4437 -231.638 47.8388 -238 30.0364C-244.777 48.0243 -269.867 84 -317.667 84C-365.467 84 -390.694 48.0243 -397.333 30.0364Z" fill="#E46464"/>
</g>
</g>
<defs>
<filter id="filter0_i" x="-477" y="-244" width="968" height="328" filterUnits="userSpaceOnUse" color-interpolation-filters="sRGB">
<feFlood flood-opacity="0" result="BackgroundImageFix"/>
<feBlend mode="normal" in="SourceGraphic" in2="BackgroundImageFix" result="shape"/>
<feColorMatrix in="SourceAlpha" type="matrix" values="0 0 0 0 0 0 0 0 0 0 0 0 0 0 0 0 0 0 127 0" result="hardAlpha"/>
<feOffset dx="12" dy="-7"/>
<feGaussianBlur stdDeviation="6"/>
<feComposite in2="hardAlpha" operator="arithmetic" k2="-1" k3="1"/>
<feColorMatrix type="matrix" values="0 0 0 0 0.354688 0 0 0 0 0.798 0 0 0 0 0.895312 0 0 0 1 0"/>
<feBlend mode="normal" in2="shape" result="effect1_innerShadow"/>
</filter>
<clipPath id="clip0">
<rect width="479" height="107" fill="white"/>
</clipPath>
</defs>
</svg>
